<?xml version="1.0" encoding="UTF-8"?>
<svg width="42px" height="42px" viewBox="0 0 42 42" version="1.1" xmlns="http://www.w3.org/2000/svg" xmlns:xlink="http://www.w3.org/1999/xlink">
    <!-- Generator: Sketch 48.2 (47327) - http://www.bohemiancoding.com/sketch -->
    <title>指挥中心</title>
    <desc>Created with Sketch.</desc>
    <defs>
        <linearGradient x1="50%" y1="0%" x2="50%" y2="100%" id="linearGradient-1">
            <stop stop-color="#0086FF" offset="0%"></stop>
            <stop stop-color="#02D5FF" offset="100%"></stop>
        </linearGradient>
    </defs>
    <g id="01指挥中心（大屏）" stroke="none" stroke-width="1" fill="none" fill-rule="evenodd" transform="translate(-653.000000, -20.000000)">
        <g id="顶栏" transform="translate(618.000000, -1.000000)" fill="url(#linearGradient-1)" fill-rule="nonzero">
            <g id="Group-2">
                <g id="Group-6">
                    <g id="Group" transform="translate(28.000000, 21.000000)">
                        <g id="指挥中心" transform="translate(7.000000, 0.000000)">
                            <path d="M5.27685523,0.0358069705 L36.7231448,0.0358069705 C38.113152,0.0358069704 39.4462274,0.587989052 40.4291056,1.57087788 C41.4119839,2.55376671 41.9641517,3.88684798 41.9641367,5.27685523 L41.9641367,26.2410483 C41.9641367,29.1355682 39.6176647,31.4820402 36.7231448,31.4820402 L5.27685523,31.4820402 C2.3823353,31.4820402 0.0358632708,29.1355682 0.0358632708,26.2410483 L0.0358632708,5.27685523 C0.0358632708,2.3823353 2.3823353,0.0358632708 5.27685523,0.0358632708 L5.27685523,0.0358069705 Z M5.27685523,2.65635925 C3.82959526,2.65635925 2.65635925,3.82959526 2.65635925,5.27685523 L2.65635925,26.2410483 C2.65635925,27.6883082 3.82959526,28.8615442 5.27685523,28.8615442 L36.7231448,28.8615442 C38.1704047,28.8615442 39.3436408,27.6883082 39.3436408,26.2410483 L39.3436408,5.27685523 C39.3436408,3.82959526 38.1704047,2.65635925 36.7231448,2.65635925 L5.27685523,2.65635925 Z M19.6897239,31.4820965 L22.3102761,31.4820965 L22.3102761,39.3436408 L19.6897239,39.3436408 L19.6897239,31.4820965 Z M7.89740751,39.3436408 L34.1025925,39.3436408 C34.826238,39.3436408 35.4128686,39.9302714 35.4128686,40.6539169 C35.4128686,41.3775624 34.826238,41.964193 34.1025925,41.964193 L7.89740751,41.964193 C7.17376198,41.964193 6.58713137,41.3775624 6.58713137,40.6539169 C6.58713137,39.9302714 7.17376198,39.3436408 7.89740751,39.3436408 Z" id="Shape"></path>
                        </g>
                    </g>
                </g>
            </g>
        </g>
    </g>
</svg>