<?xml version="1.0" encoding="UTF-8"?>
<svg width="35px" height="36px" viewBox="0 0 35 36" version="1.1" xmlns="http://www.w3.org/2000/svg" xmlns:xlink="http://www.w3.org/1999/xlink">
    <!-- Generator: Sketch 48.2 (47327) - http://www.bohemiancoding.com/sketch -->
    <title>icon_police</title>
    <desc>Created with Sketch.</desc>
    <defs></defs>
    <g id="01大屏-事件分布" stroke="none" stroke-width="1" fill="none" fill-rule="evenodd" transform="translate(-775.000000, -1017.000000)">
        <g id="底部" transform="translate(-440.000000, 1005.000000)" fill="#FFFFFF" fill-rule="nonzero">
            <g id="Group-23" transform="translate(1215.000000, 12.000000)">
                <g id="报警指纹">
                    <path d="M6.71672535,24.3126761 C6.03221831,24.3126761 5.4665493,23.7707746 5.43327465,23.0815141 C5.42852113,22.9151408 5.42376761,22.7487676 5.42376761,22.5681338 C5.42376761,19.1028169 6.77376761,15.8419014 9.22658451,13.393838 C11.6794014,10.9410211 14.9355634,9.59102113 18.4008803,9.59102113 C21.8661972,9.59102113 25.1271127,10.9410211 27.5751761,13.393838 C30.027993,15.8466549 31.377993,19.1028169 31.377993,22.5681338 C31.377993,22.7487676 31.3732394,22.9151408 31.3684859,23.0815141 C31.3399648,23.7897887 30.7410211,24.3411972 30.0327465,24.3079225 C29.3244718,24.2794014 28.7730634,23.6804577 28.806338,22.9721831 C28.8110915,22.843838 28.8158451,22.7107394 28.8158451,22.5681338 C28.8158451,16.8306338 24.1478873,12.1579225 18.4056338,12.1579225 C12.6633803,12.1579225 7.99542254,16.8258803 7.99542254,22.5681338 C7.99542254,22.7107394 8.00017606,22.843838 8.00492958,22.9721831 C8.0334507,23.6804577 7.48679577,24.2794014 6.77852113,24.3079225 C6.75475352,24.3126761 6.73573944,24.3126761 6.71672535,24.3126761 Z" id="Shape"></path>
                    <path d="M6.70721831,34.9985915 C5.99894366,34.9985915 5.42376761,34.4234155 5.42376761,33.7151408 L5.42376761,21.5080986 C5.42376761,20.7998239 5.99894366,20.2246479 6.70721831,20.2246479 L6.71672535,20.2246479 C7.425,20.2246479 8.00017606,20.7998239 8.00017606,21.5080986 C8.00017606,21.5603873 7.99542254,21.6126761 7.99066901,21.6649648 L7.99066901,33.7151408 C7.99066901,34.428169 7.41549296,34.9985915 6.70721831,34.9985915 Z M30.0945423,25.6816901 C29.3862676,25.6816901 28.8110915,25.1065141 28.8110915,24.3982394 L28.8110915,21.9501761 C28.806338,21.8978873 28.8015845,21.8455986 28.8015845,21.7933099 C28.8015845,21.0850352 29.3767606,20.5098592 30.0850352,20.5098592 L30.0945423,20.5098592 C30.8028169,20.5098592 31.377993,21.0850352 31.377993,21.7933099 L31.377993,24.3982394 C31.377993,25.1065141 30.8028169,25.6816901 30.0945423,25.6816901 Z M30.0945423,34.9985915 C29.3862676,34.9985915 28.8110915,34.4234155 28.8110915,33.7151408 L28.8110915,31.7329225 C28.8110915,31.0246479 29.3862676,30.4494718 30.0945423,30.4494718 C30.8028169,30.4494718 31.377993,31.0246479 31.377993,31.7329225 L31.377993,33.7151408 C31.377993,34.428169 30.8028169,34.9985915 30.0945423,34.9985915 Z" id="Shape"></path>
                    <path d="M33.6501761,35.9492958 L3.60792254,35.9492958 C2.89964789,35.9492958 2.32447183,35.3741197 2.32447183,34.6658451 C2.32447183,33.9575704 2.89964789,33.3823944 3.60792254,33.3823944 L33.6501761,33.3823944 C34.3584507,33.3823944 34.9336268,33.9575704 34.9336268,34.6658451 C34.9336268,35.3741197 34.3584507,35.9492958 33.6501761,35.9492958 Z" id="Shape"></path>
                    <path d="M12.7109155,34.9415493 C12.0026408,34.9415493 11.4274648,34.3663732 11.4274648,33.6580986 L11.4274648,21.256162 C11.4274648,20.5478873 12.0026408,19.9727113 12.7109155,19.9727113 C13.4191901,19.9727113 13.9943662,20.5478873 13.9943662,21.256162 L13.9943662,33.6580986 C13.9943662,34.3663732 13.4191901,34.9415493 12.7109155,34.9415493 Z M18.8286972,6.56302817 C18.1204225,6.56302817 17.5452465,5.98785211 17.5452465,5.27957746 L17.5452465,1.3056338 C17.5452465,0.597359155 18.1204225,0.0221830986 18.8286972,0.0221830986 C19.5369718,0.0221830986 20.1121479,0.597359155 20.1121479,1.3056338 L20.1121479,5.27957746 C20.1121479,5.98785211 19.5369718,6.56302817 18.8286972,6.56302817 Z M10.7144366,8.73538732 C10.2723592,8.73538732 9.83978873,8.50721831 9.60211268,8.09366197 L7.61514085,4.65211268 C7.25862676,4.03890845 7.47253521,3.25457746 8.08573944,2.89806338 C8.69894366,2.5415493 9.48327465,2.75545775 9.83978873,3.36866197 L11.8267606,6.81021127 C12.1832746,7.42341549 11.9693662,8.20774648 11.356162,8.56426056 C11.1565141,8.68309859 10.9330986,8.73538732 10.7144366,8.73538732 Z M4.77253521,14.6772887 C4.55387324,14.6772887 4.33521127,14.6202465 4.13080986,14.506162 L0.689260563,12.5191901 C0.076056338,12.1626761 -0.133098592,11.3783451 0.218661972,10.7651408 C0.575176056,10.1519366 1.35950704,9.94278169 1.97271127,10.2945423 L5.41426056,12.2815141 C6.02746479,12.6380282 6.23661972,13.4223592 5.88485915,14.0355634 C5.6471831,14.4491197 5.21461268,14.6772887 4.77253521,14.6772887 Z" id="Shape"></path>
                </g>
            </g>
        </g>
    </g>
</svg>