<?xml version="1.0" encoding="UTF-8"?>
<svg width="42px" height="34px" viewBox="0 0 42 34" version="1.1" xmlns="http://www.w3.org/2000/svg" xmlns:xlink="http://www.w3.org/1999/xlink">
    <!-- Generator: Sketch 48.2 (47327) - http://www.bohemiancoding.com/sketch -->
    <title>报表统计</title>
    <desc>Created with Sketch.</desc>
    <defs>
        <linearGradient x1="50%" y1="0%" x2="50%" y2="100%" id="linearGradient-1">
            <stop stop-color="#0086FF" offset="0%"></stop>
            <stop stop-color="#02D5FF" offset="100%"></stop>
        </linearGradient>
    </defs>
    <g id="03报表统计" stroke="none" stroke-width="1" fill="none" fill-rule="evenodd" transform="translate(-882.000000, -24.000000)">
        <g id="顶栏" transform="translate(618.000000, -1.000000)" fill="url(#linearGradient-1)" fill-rule="nonzero">
            <g id="Group-2">
                <g id="Group" transform="translate(257.000000, 25.000000)">
                    <g id="报表统计" transform="translate(7.000000, 0.000000)">
                        <path d="M41.4986265,32.1418984 C41.4986265,32.7540184 40.9996899,33.2502397 40.3842204,33.2502397 L1.13037927,33.2502397 C0.514909768,33.2502397 0.0159731544,32.7540184 0.0159731544,32.1418984 C0.0159731544,31.5297784 0.514909768,31.033557 1.13037927,31.033557 L40.3842204,31.033557 C41.0023443,31.033557 41.4986265,31.530094 41.4986265,32.1418984 Z" id="Shape"></path>
                        <path d="M1.13037927,0 C1.74553145,0 2.24478539,0.496536913 2.24478539,1.10834132 L2.24478539,32.1389428 C2.24478539,32.7510628 1.74584878,33.2472841 1.13037927,33.2472841 C0.514909768,33.2472841 0.0159731544,32.7510628 0.0159731544,32.1389428 L0.0159731544,1.10834132 C0.0159731544,0.496536913 0.515227095,0 1.13037927,0 Z M15.4958171,14.6094164 C15.9303662,15.0421388 15.9303662,15.7431498 15.4958171,16.1758722 L6.04268144,25.5775622 C5.60359094,25.9844843 4.91934563,25.9724773 4.49496183,25.5504031 C4.07057804,25.1283288 4.05850533,24.4478073 4.46765413,24.0111064 L13.9207898,14.6094164 C14.35588,14.1772322 15.0607269,14.1772322 15.4958171,14.6094164 Z M37.3708662,9.57311345 C37.5486657,9.80835891 37.6248029,10.1044079 37.5824089,10.3956675 C37.5400148,10.6869271 37.3825899,10.9493492 37.1450133,11.1247913 L21.8880506,22.5096734 C21.3969636,22.8755826 20.7008537,22.777812 20.3308538,22.2909607 C20.1528986,22.0565568 20.0763516,21.7612173 20.1181948,21.4704637 C20.160038,21.1797102 20.3168116,20.917584 20.553735,20.7422384 L35.8077259,9.35440077 C36.3007171,8.98787437 36.9986919,9.08553414 37.3708662,9.57311345 Z" id="Shape"></path>
                        <path d="M21.8434743,22.4062282 C21.4083841,22.8384124 20.7035372,22.8384124 20.268447,22.4062282 L14.0069705,16.1758722 C13.5720798,15.7421366 13.5720798,15.0401965 14.0069705,14.6064609 C14.4433991,14.177505 15.1455692,14.177505 15.5819978,14.6064609 L21.8434743,20.8368169 C22.0530756,21.0447512 22.170873,21.3270866 22.170873,21.6215225 C22.170873,21.9159584 22.0530756,22.1982939 21.8434743,22.4062282 Z" id="Shape"></path>
                    </g>
                </g>
            </g>
        </g>
    </g>
</svg>