<?xml version="1.0" encoding="UTF-8"?>
<svg width="43px" height="40px" viewBox="0 0 43 40" version="1.1" xmlns="http://www.w3.org/2000/svg" xmlns:xlink="http://www.w3.org/1999/xlink">
    <!-- Generator: Sketch 48.2 (47327) - http://www.bohemiancoding.com/sketch -->
    <title>系统设置</title>
    <desc>Created with Sketch.</desc>
    <defs>
        <linearGradient x1="50%" y1="0%" x2="50%" y2="100%" id="linearGradient-1">
            <stop stop-color="#0086FF" offset="0%"></stop>
            <stop stop-color="#02D8FA" offset="100%"></stop>
        </linearGradient>
    </defs>
    <g id="07系统管理-账户管理" stroke="none" stroke-width="1" fill="none" fill-rule="evenodd" transform="translate(-1224.000000, -21.000000)">
        <g id="头部" transform="translate(0.000000, -2.000000)" fill="url(#linearGradient-1)" fill-rule="nonzero">
            <g id="顶栏" transform="translate(0.000000, 1.000000)">
                <g id="Group-6" transform="translate(618.000000, 0.000000)">
                    <g id="Group-11" transform="translate(570.000000, 0.000000)">
                        <g id="系统设置" transform="translate(36.000000, 22.000000)">
                            <path d="M27.9302775,39.9993308 C27.1486823,39.9993308 26.3887294,39.6805752 25.8977591,39.1460654 C25.2293221,38.4232278 23.110853,36.544825 21.3763796,36.5448249 C19.6542733,36.5448249 17.5030316,38.4341983 16.884681,39.0966979 C16.3949473,39.6208467 15.6405596,39.9347264 14.8663847,39.9347264 C14.5106706,39.9374392 14.1583064,39.8668568 13.8318842,39.7275048 L13.7762326,39.7031258 L8.50479392,36.7977572 L8.45223413,36.7617981 C7.48670736,36.0789089 7.13325794,34.8258698 7.60262043,33.7497713 C7.60633052,33.7418482 8.088644,32.6441832 8.088644,31.6434248 C8.08523615,28.6032643 5.58566002,26.1395651 2.50122812,26.1362062 L2.28047694,26.1362062 C1.39809067,26.1362062 0.678948916,25.3633916 0.449540904,24.1676011 C0.430990387,24.0719134 3.96314501e-08,21.8034465 1.13686838e-13,20.016465 C-3.96312227e-08,18.2294834 0.432845411,15.960407 0.449540904,15.8647194 C0.682040715,14.653692 1.41602285,13.8753921 2.31448626,13.8967237 L2.49999143,13.8967237 C5.58442332,13.8933648 8.08399944,11.4296656 8.08740726,8.38950516 C8.08740726,7.38935625 7.60509382,6.29169125 7.60014704,6.2807207 C7.13138597,5.20407453 7.48804503,3.95096819 8.45656258,3.27174129 L8.51159576,3.23456328 L14.076751,0.222536484 L14.134876,0.19815746 C14.4576507,0.0647661553 14.8045486,-0.00262233868 15.1545361,7.8007091e-05 C15.926856,7.8007091e-05 16.6830987,0.304815663 17.1771609,0.819822265 C17.8357042,1.49938719 19.9164539,3.26625601 21.6014593,3.26625601 C23.2710058,3.26625601 25.3387702,1.5341273 25.9917484,0.866751835 C26.4833371,0.363934726 27.2340147,0.0628539446 27.9989144,0.0628539837 C28.3558431,0.0601077418 28.7095026,0.13003191 29.0377434,0.268247148 L29.0940133,0.292626132 L34.4674798,3.23456328 L34.5200396,3.2711318 C35.487051,3.95294144 35.8414775,5.2067069 35.3715084,6.28315863 C35.3677983,6.2910818 34.8854848,7.3887468 34.8854848,8.38950516 C34.8892326,11.4295266 37.3886099,13.8930297 40.4729007,13.8967237 L40.6584059,13.8967237 C41.5550142,13.8772205 42.2908514,14.653692 42.5233512,15.8647194 C42.5412834,15.960407 42.9728921,18.228874 42.9728921,20.0158555 C42.9728921,21.802837 42.5400467,24.0719135 42.5227329,24.1676011 C42.290233,25.3786284 41.5550142,26.153881 40.6577875,26.1355967 L40.4722823,26.1355967 C37.389441,26.1416405 34.8925964,28.6048279 34.8891949,31.6434248 C34.8891949,32.6435737 35.3715084,33.7406292 35.3764552,33.7515998 C35.8444262,34.8288796 35.4870658,36.0819901 34.5181846,36.7611887 L34.4643881,36.7983666 L29.0006423,39.7750439 L28.9437541,39.7994229 C28.6225886,39.9340664 28.2768058,40.0023133 27.9278041,39.9999403 L27.9302775,39.9993308 Z M27.7645595,37.4620852 C27.8153983,37.4894506 27.872352,37.5039036 27.9302775,37.504139 L27.938316,37.504139 L33.0428001,34.7231034 C32.91913,34.4409163 32.3564309,33.0714254 32.3564309,31.6434248 C32.3564309,27.3716126 35.7697262,23.8713961 40.0493305,23.651985 C40.1111656,23.3167736 40.4456932,21.4310571 40.4456933,20.0158555 C40.4456933,18.6006539 40.1111656,16.7161564 40.0499489,16.379726 C35.7697262,16.1615339 32.3539576,12.6607079 32.3539576,8.38950516 C32.3539576,6.95906668 32.91913,5.58591891 33.0415634,5.30860766 L28.0217934,2.55499836 L28.0007694,2.55499836 C27.9337882,2.55495336 27.8678708,2.57151055 27.8090808,2.60314691 C27.2365286,3.16710998 26.615898,3.6815687 25.954029,4.14085301 C24.4081525,5.21413898 22.9426617,5.75840039 21.6039327,5.75840039 C20.2522183,5.75840039 18.7768338,5.20377789 17.2192087,4.10916031 C16.5512881,3.64157172 15.9256585,3.11790875 15.3493165,2.54402781 C15.2898567,2.51169294 15.2230638,2.49471024 15.1551544,2.49466031 L15.1372223,2.49466031 L9.93565716,5.31043609 C10.0593273,5.59628 10.621408,6.96333305 10.621408,8.3888957 C10.621408,12.6607079 7.20811275,16.1609244 2.92850838,16.3803355 C2.86667331,16.7155469 2.532764,18.6012634 2.532764,20.016465 C2.532764,21.4316666 2.86729168,23.3161641 2.92850838,23.651985 C7.20811275,23.8713961 10.621408,27.3697842 10.621408,31.6434248 C10.621408,33.0769106 10.0537621,34.4500584 9.93318377,34.7267602 L14.8546361,37.4401441 L14.8657664,37.4401441 C14.92322,37.4398944 14.9797211,37.4256578 15.0302476,37.3986998 C15.6101407,36.80324 16.2416002,36.2587455 16.9174536,35.7714008 C18.4961027,34.6310726 19.9962212,34.0526805 21.3763796,34.0526805 C22.7695235,34.0526805 24.2826274,34.6420431 25.869315,35.8043125 C26.5491553,36.3019621 27.1833398,36.8574999 27.7645595,37.4645231 L27.7645595,37.4620852 Z" id="Shape"></path>
                            <path d="M21.3943118,27.3228546 C17.2849555,27.3228544 13.9535365,24.0396154 13.9530813,19.9892415 C13.9526261,15.9388676 17.2833072,12.6549013 21.3926634,12.6540038 C25.5020196,12.6531063 28.8341768,15.9356175 28.8355427,19.9859912 C28.8324755,24.0358244 25.5031183,27.3184855 21.3943118,27.3228546 Z M21.3943118,15.148586 C19.4080469,15.1485862 17.6174091,16.3280401 16.8575297,18.1368649 C16.0976503,19.9456896 16.5182101,22.0275836 17.9230653,23.4115771 C19.3279204,24.7955706 21.440343,25.2090451 23.2751252,24.4591611 C25.1099074,23.7092771 26.3056343,21.9437466 26.3046338,19.9859912 C26.3015669,17.3142728 24.1049364,15.1491709 21.3943118,15.146148 L21.3943118,15.148586 Z" id="Shape"></path>
                        </g>
                    </g>
                </g>
            </g>
        </g>
    </g>
</svg>