<?xml version="1.0" encoding="UTF-8"?>
<svg width="28px" height="28px" viewBox="0 0 28 28" version="1.1" xmlns="http://www.w3.org/2000/svg" xmlns:xlink="http://www.w3.org/1999/xlink">
    <!-- Generator: Sketch 48.2 (47327) - http://www.bohemiancoding.com/sketch -->
    <title>Shape</title>
    <desc>Created with Sketch.</desc>
    <defs></defs>
    <g id="07系统管理-账户管理" stroke="none" stroke-width="1" fill="none" fill-rule="evenodd" transform="translate(-1815.000000, -25.000000)">
        <g id="头部" transform="translate(0.000000, -2.000000)" fill="#FFFFFF" fill-rule="nonzero">
            <g id="顶栏" transform="translate(0.000000, 1.000000)">
                <g id="Group-5" transform="translate(1690.000000, 22.000000)">
                    <g id="Group-4">
                        <g id="Group-3" transform="translate(125.000000, 4.000000)">
                            <path d="M4.3,4.1 C4.7,3.7 5.3,3.7 5.7,4.1 C6.1,4.5 6.1,5.1 5.7,5.5 C3.4,7.7 2.1,10.8 2.1,14 C2.1,20.6 7.5,26 14.1,26 C20.7,26 26.1,20.6 26.1,14 C26.1,10.6 24.7,7.4 22.2,5.2 C21.8,4.8 21.8,4.2 22.1,3.8 C22.5,3.4 23.1,3.4 23.5,3.7 C26.4,6.3 28,10 28,14 C28,21.7 21.7,28 14,28 C6.3,28 0,21.7 0,14 C0.2,10.2 1.7,6.7 4.3,4.1 Z M14.2,0 C14.8,0 15.2,0.4 15.2,1 L15.2,13 C15.2,13.6 14.8,14 14.2,14 C13.6,14 13.2,13.6 13.2,13 L13.2,1 C13.2,0.4 13.6,0 14.2,0 Z" id="Shape"></path>
                        </g>
                    </g>
                </g>
            </g>
        </g>
    </g>
</svg>